<svg width="94pt" height="22pt" viewBox="-0.4 -0.4 95 22" xmlns="http://www.w3.org/2000/svg"><g id="fontsvg1692420979765" stroke-linecap="round" fill-rule="evenodd" stroke="#11c77f" stroke-width="0.2mm" fill="#222222"><path d="M 79.4 12.75 L 79.45 14.15 L 68.95 14.15 L 68.95 13.15 A 8.989 8.989 0 0 1 68.953 12.924 Q 68.964 12.472 69.025 12.35 Q 69.098 12.204 69.478 12.2 A 2.059 2.059 0 0 1 69.5 12.2 A 1.533 1.533 0 0 1 69.718 12.214 Q 69.963 12.25 70.076 12.373 A 0.35 0.35 0 0 1 70.15 12.5 A 0.252 0.252 0 0 0 70.325 12.619 Q 70.869 12.805 73.085 12.841 A 71.796 71.796 0 0 0 74.25 12.85 L 78.15 12.85 L 78 12.2 A 6.552 6.552 0 0 0 77.218 10.311 A 5.556 5.556 0 0 0 75.8 8.775 Q 74.15 7.55 72.15 7.55 Q 70.35 7.55 68.825 8.5 A 5.747 5.747 0 0 0 66.859 10.579 A 7.346 7.346 0 0 0 66.5 11.3 Q 66.05 12.35 66.05 13.45 Q 66.05 15.15 66.95 16.675 Q 67.85 18.2 69.45 19 A 3.824 3.824 0 0 0 70.31 19.319 Q 71.038 19.5 72 19.5 A 8.649 8.649 0 0 0 73.168 19.426 Q 73.767 19.344 74.269 19.172 A 4.342 4.342 0 0 0 74.8 18.95 Q 75.439 18.606 75.546 18.479 A 0.193 0.193 0 0 0 75.55 18.475 Q 75.65 18.35 75.45 18.15 Q 75.25 17.95 75 17.95 Q 74.756 17.95 74.018 18.181 A 20.761 20.761 0 0 0 73.65 18.3 Q 72.781 18.576 72.256 18.635 A 2.342 2.342 0 0 1 72 18.65 A 1.078 1.078 0 0 1 71.924 18.646 Q 71.719 18.631 71.15 18.55 Q 68.95 18 67.75 16.15 Q 67.158 15.194 67.105 13.782 A 7.523 7.523 0 0 1 67.1 13.5 A 20.981 20.981 0 0 1 67.105 13.001 Q 67.122 12.305 67.189 11.974 A 1.645 1.645 0 0 1 67.2 11.925 Q 67.283 11.573 67.64 11.033 A 7.767 7.767 0 0 1 67.8 10.8 A 5.697 5.697 0 0 1 68.843 9.593 A 4.038 4.038 0 0 1 71.55 8.6 A 15.744 15.744 0 0 1 71.767 8.601 Q 72.034 8.605 72.172 8.619 A 1.243 1.243 0 0 1 72.225 8.625 Q 72.342 8.642 72.414 8.692 A 0.262 0.262 0 0 1 72.475 8.75 Q 72.538 8.834 72.548 9.026 A 1.445 1.445 0 0 1 72.55 9.1 A 1.096 1.096 0 0 1 72.539 9.261 Q 72.509 9.463 72.396 9.559 A 0.324 0.324 0 0 1 72.375 9.575 Q 72.2 9.7 71.5 9.85 Q 70.1 10.15 69.2 11.175 A 3.61 3.61 0 0 0 68.478 12.397 A 3.401 3.401 0 0 0 68.3 13.5 A 3.102 3.102 0 0 0 68.462 14.466 Q 68.591 14.863 68.825 15.275 A 4.405 4.405 0 0 0 69.327 15.993 A 3.218 3.218 0 0 0 70.1 16.65 A 6.407 6.407 0 0 0 70.844 17.013 Q 71.552 17.3 72.15 17.3 Q 73.05 17.3 74.05 16.65 Q 74.85 16.1 75.15 16.1 Q 75.385 16.1 76.305 17.051 A 22.506 22.506 0 0 1 76.425 17.175 A 19.787 19.787 0 0 1 76.77 17.546 Q 77.45 18.296 77.45 18.5 A 0.454 0.454 0 0 1 77.34 18.76 Q 76.99 19.224 75.534 20.023 A 24.969 24.969 0 0 1 75.3 20.15 Q 74.129 20.736 72.471 20.794 A 10.599 10.599 0 0 1 72.1 20.8 Q 70.147 20.8 69.057 20.301 A 3.418 3.418 0 0 1 68.95 20.25 A 7.81 7.81 0 0 1 66.851 18.78 A 7.039 7.039 0 0 1 65.8 17.45 Q 64.7 15.65 64.7 13.6 Q 64.7 11.15 66.15 9.125 A 7.089 7.089 0 0 1 69.451 6.616 A 9.14 9.14 0 0 1 70.25 6.35 A 9.295 9.295 0 0 1 71.087 6.179 Q 71.504 6.115 71.879 6.103 A 5.328 5.328 0 0 1 72.05 6.1 Q 74.85 6.1 77.025 8.05 Q 79.2 10 79.4 12.75 Z M 0.05 0.25 L 0.05 0.1 Q 0.1 0 6.6 0 L 13.1 0.05 L 13.1 3.55 L 7.85 3.65 L 5.4 3.65 A 46.959 46.959 0 0 1 4.716 3.645 Q 2.469 3.613 2.25 3.35 A 1.02 1.02 0 0 1 2.161 3.202 Q 2.032 2.936 2.15 2.7 A 0.275 0.275 0 0 1 2.347 2.583 Q 3.14 2.35 7.1 2.35 L 11.9 2.35 L 11.9 1.25 L 1.1 1.25 L 1.25 3.95 A 38.328 38.328 0 0 1 1.308 5.142 Q 1.379 7.086 1.395 10.747 A 537.246 537.246 0 0 1 1.4 13.15 A 156.946 156.946 0 0 0 1.407 14.685 Q 1.453 19.402 1.804 19.682 A 0.072 0.072 0 0 0 1.85 19.7 A 0.236 0.236 0 0 0 2.049 19.585 Q 2.17 19.411 2.2 18.975 Q 2.243 18.355 2.286 15.409 A 622.79 622.79 0 0 0 2.3 14.35 L 2.4 9.05 L 10.25 9.05 L 10.25 10.15 L 6.95 10.2 L 3.6 10.3 L 3.6 20.8 L 3.1 20.9 A 3.246 3.246 0 0 1 2.647 20.978 A 4.346 4.346 0 0 1 2.2 21 A 1.438 1.438 0 0 1 2.147 20.999 Q 2.034 20.995 1.8 20.975 A 11.961 11.961 0 0 0 1.659 20.964 Q 1.524 20.954 1.429 20.951 A 2.504 2.504 0 0 0 1.35 20.95 L 0.2 20.9 L 0.05 10.6 A 238.23 238.23 0 0 0 0.048 9.767 Q 0.044 8.619 0.03 7.087 A 737.546 737.546 0 0 0 0.025 6.575 Q 0 4.1 0 3.25 L 0 2.2 L 0 1.325 A 9.642 9.642 0 0 1 0.004 1.058 Q 0.007 0.926 0.015 0.809 A 5.072 5.072 0 0 1 0.025 0.675 A 9.398 9.398 0 0 0 0.036 0.545 Q 0.047 0.405 0.049 0.307 A 2.224 2.224 0 0 0 0.05 0.25 Z M 39.4 15.15 L 39.4 16.55 L 39.3 21 L 35.85 21 L 35.85 13.4 L 36.9 13.4 L 37 16.7 L 37.05 20.05 L 38.15 20.05 L 38.05 15.6 Q 38.003 12.606 37.935 11.778 A 5.165 5.165 0 0 0 37.925 11.675 Q 37.85 10.95 37.5 10.35 Q 36.95 9.55 36.2 8.95 A 2.743 2.743 0 0 0 35.731 8.637 A 1.967 1.967 0 0 0 35.075 8.425 A 5.305 5.305 0 0 0 34.783 8.398 Q 34.048 8.345 32.095 8.307 A 216.797 216.797 0 0 0 31.75 8.3 L 28.05 8.25 L 28.05 14.1 Q 28.05 17.974 28.09 19.033 A 8.978 8.978 0 0 0 28.1 19.25 A 2.782 2.782 0 0 0 28.128 19.517 Q 28.214 20.05 28.5 20.05 A 0.222 0.222 0 0 0 28.661 19.873 Q 28.894 19.301 28.939 16.876 A 68.925 68.925 0 0 0 28.95 15.6 A 146.429 146.429 0 0 1 28.955 14.367 Q 28.968 12.821 29.017 12.035 A 9.225 9.225 0 0 1 29.05 11.625 Q 29.14 10.79 29.475 10.709 A 0.317 0.317 0 0 1 29.55 10.7 A 0.158 0.158 0 0 1 29.578 10.704 Q 29.642 10.716 29.818 10.773 A 10.422 10.422 0 0 1 29.9 10.8 Q 30.25 10.9 30.25 16 L 30.25 21.15 L 28.6 21.1 L 26.85 21 L 26.8 14.25 A 1574.415 1574.415 0 0 1 26.801 12.63 Q 26.806 7.911 26.841 7.29 A 0.553 0.553 0 0 1 26.85 7.2 Q 26.95 6.95 28.8 6.95 Q 29.1 6.95 29.9 6.975 A 59.137 59.137 0 0 0 30.472 6.99 Q 30.925 7 31.3 7 A 259.07 259.07 0 0 1 32.428 7.02 Q 34.677 7.064 35.225 7.125 A 2.95 2.95 0 0 1 35.919 7.294 Q 36.219 7.404 36.533 7.582 A 5.224 5.224 0 0 1 36.65 7.65 A 5.409 5.409 0 0 1 39.181 11.028 A 7.024 7.024 0 0 1 39.2 11.1 A 6.162 6.162 0 0 1 39.278 11.636 Q 39.4 12.767 39.4 15.15 Z M 57.95 0.5 L 59.45 0.55 L 59.55 7.4 L 59.55 9.45 A 93.823 93.823 0 0 1 59.533 11.293 Q 59.473 14.323 59.2 15.475 Q 58.912 16.689 57.98 18.022 A 12.619 12.619 0 0 1 57.55 18.6 Q 57.072 19.173 56.047 19.861 A 14.93 14.93 0 0 1 55.95 19.925 Q 54.853 20.648 54.054 20.849 A 3.169 3.169 0 0 1 54.05 20.85 A 7.556 7.556 0 0 1 52.087 21.191 A 8.687 8.687 0 0 1 51.7 21.2 A 7.212 7.212 0 0 1 47.769 20.027 A 8.668 8.668 0 0 1 47.65 19.95 Q 46.15 19 45.35 17.4 Q 44.55 15.8 44.55 14 A 7.34 7.34 0 0 1 44.994 11.402 A 6.511 6.511 0 0 1 46.75 8.85 A 8.286 8.286 0 0 1 47.83 8.009 A 6.066 6.066 0 0 1 49.1 7.375 Q 50.3 6.95 52.35 6.85 A 20.019 20.019 0 0 1 52.955 6.82 Q 53.224 6.81 53.523 6.805 A 38.437 38.437 0 0 1 54.15 6.8 A 6.31 6.31 0 0 1 54.684 6.821 Q 55.562 6.896 55.779 7.243 A 0.475 0.475 0 0 1 55.85 7.5 A 0.639 0.639 0 0 1 55.822 7.696 Q 55.748 7.927 55.475 8 A 1.678 1.678 0 0 1 55.281 8.036 Q 54.744 8.109 53.2 8.15 A 24.017 24.017 0 0 0 51.921 8.208 Q 50.766 8.293 49.99 8.492 A 5.161 5.161 0 0 0 49.55 8.625 A 4.751 4.751 0 0 0 48.128 9.439 A 6.403 6.403 0 0 0 47.35 10.2 A 6.573 6.573 0 0 0 46.312 11.818 A 5.343 5.343 0 0 0 45.85 14 A 5.641 5.641 0 0 0 46.713 16.986 A 6.791 6.791 0 0 0 46.8 17.125 A 5.875 5.875 0 0 0 49.344 19.302 A 7.078 7.078 0 0 0 49.45 19.35 A 5.215 5.215 0 0 0 51.508 19.845 A 6.109 6.109 0 0 0 51.75 19.85 A 6.177 6.177 0 0 0 55.24 18.762 A 7.724 7.724 0 0 0 55.575 18.525 Q 57.35 17.2 58 15 A 2.603 2.603 0 0 0 58.084 14.529 Q 58.25 13.072 58.25 7.9 L 58.25 5.15 L 58.25 3.225 A 12.864 12.864 0 0 0 58.245 2.859 Q 58.234 2.483 58.2 2.225 A 3.298 3.298 0 0 0 58.18 2.096 Q 58.148 1.912 58.108 1.839 A 0.113 0.113 0 0 0 58.075 1.8 A 0.248 0.248 0 0 0 58.011 1.771 Q 57.95 1.751 57.862 1.75 A 0.873 0.873 0 0 0 57.85 1.75 Q 57.55 1.75 57.475 2.05 Q 57.414 2.293 57.403 3.096 A 28.356 28.356 0 0 0 57.4 3.5 Q 57.4 5.1 57.25 5.5 Q 57.132 5.814 56.799 5.881 A 1.002 1.002 0 0 1 56.6 5.9 L 56.55 5.9 A 0.557 0.557 0 0 1 56.398 5.881 Q 56.188 5.821 56.15 5.575 Q 56.107 5.297 56.101 3.871 A 119.653 119.653 0 0 1 56.1 3.35 A 75.061 75.061 0 0 1 56.102 2.738 Q 56.119 0.731 56.25 0.6 Q 56.336 0.514 57.528 0.502 A 41.639 41.639 0 0 1 57.95 0.5 Z M 85.85 11.25 L 85.85 13.85 L 85.85 16.45 L 85.85 18.325 Q 85.85 18.95 85.9 19.3 A 2.916 2.916 0 0 0 85.92 19.421 Q 85.952 19.595 85.993 19.664 A 0.112 0.112 0 0 0 86.025 19.7 A 0.248 0.248 0 0 0 86.089 19.729 Q 86.15 19.749 86.238 19.75 A 0.873 0.873 0 0 0 86.25 19.75 Q 86.35 19.75 86.417 19.716 A 0.222 0.222 0 0 0 86.475 19.675 A 0.183 0.183 0 0 0 86.507 19.625 Q 86.566 19.504 86.624 19.156 A 6.647 6.647 0 0 0 86.625 19.15 Q 86.697 18.721 86.7 18.018 A 14.586 14.586 0 0 0 86.7 17.95 L 86.7 15.65 L 86.7 11.55 L 89.6 9.35 A 112.03 112.03 0 0 1 90.404 8.752 Q 93.043 6.81 93.446 6.8 A 0.166 0.166 0 0 1 93.45 6.8 A 0.304 0.304 0 0 1 93.713 6.964 Q 93.9 7.262 93.9 8.1 A 4.926 4.926 0 0 1 93.898 8.216 Q 93.894 8.413 93.875 8.75 A 21.462 21.462 0 0 0 93.864 8.966 Q 93.85 9.265 93.85 9.485 A 7.234 7.234 0 0 0 93.85 9.5 L 93.8 12 L 92.2 12.05 L 91.3 12.05 Q 90.704 12.05 90.55 11.892 A 0.181 0.181 0 0 1 90.5 11.8 A 0.482 0.482 0 0 1 90.46 11.688 A 0.408 0.408 0 0 1 90.45 11.6 A 0.665 0.665 0 0 1 90.839 10.964 Q 91.128 10.817 91.633 10.802 A 3.941 3.941 0 0 1 91.75 10.8 L 92.6 10.8 L 92.6 8.8 L 91.75 9.45 A 33.832 33.832 0 0 1 91.534 9.616 Q 90.963 10.053 89.5 11.15 L 88.05 12.2 L 87.95 16.6 L 87.9 20.95 L 84.65 20.95 L 84.55 14 L 84.55 11.55 Q 84.55 7 84.8 6.85 Q 85.061 6.676 86.002 6.653 A 12.383 12.383 0 0 1 86.3 6.65 A 7.106 7.106 0 0 1 86.725 6.662 Q 87.335 6.698 87.6 6.85 A 0.805 0.805 0 0 1 87.908 7.173 Q 88.005 7.35 88.05 7.6 Q 88.093 7.73 88.118 7.785 A 0.393 0.393 0 0 0 88.125 7.8 A 0.043 0.043 0 0 0 88.154 7.823 Q 88.187 7.831 88.251 7.809 A 0.563 0.563 0 0 0 88.275 7.8 Q 88.398 7.751 88.642 7.557 A 5.22 5.22 0 0 0 88.65 7.55 A 0.48 0.48 0 0 1 88.694 7.511 Q 88.718 7.492 88.743 7.479 A 0.286 0.286 0 0 1 88.75 7.475 A 0.328 0.328 0 0 0 88.8 7.444 Q 88.825 7.425 88.85 7.4 Q 89.494 6.957 89.943 6.871 A 1.096 1.096 0 0 1 90.15 6.85 A 0.72 0.72 0 0 1 90.348 6.875 Q 90.65 6.961 90.65 7.35 Q 90.65 7.66 90.278 8.047 A 3.016 3.016 0 0 1 90.175 8.15 Q 89.811 8.495 89.286 8.883 A 15.681 15.681 0 0 1 88.95 9.125 Q 88.232 9.628 88.11 9.695 A 0.283 0.283 0 0 1 88.1 9.7 A 4.112 4.112 0 0 1 87.848 9.87 Q 87.606 10.02 87.425 10.072 A 0.638 0.638 0 0 1 87.25 10.1 Q 86.779 10.1 86.711 9.257 A 3.849 3.849 0 0 1 86.7 8.95 A 3.355 3.355 0 0 0 86.685 8.623 Q 86.654 8.304 86.554 8.136 A 0.339 0.339 0 0 0 86.25 7.95 A 0.725 0.725 0 0 0 86.172 7.954 Q 86.086 7.963 86.034 7.994 A 0.202 0.202 0 0 0 86.025 8 A 0.116 0.116 0 0 0 85.992 8.039 Q 85.951 8.109 85.919 8.281 A 2.924 2.924 0 0 0 85.9 8.4 Q 85.855 8.716 85.85 9.257 A 14.643 14.643 0 0 0 85.85 9.375 L 85.85 11.25 Z M 19.55 6.1 L 20.1 6.1 L 21.7 6.15 L 21.7 13.6 L 20.6 13.6 L 20.55 10.45 A 115.086 115.086 0 0 0 20.53 9.703 Q 20.489 8.329 20.435 7.893 A 2.21 2.21 0 0 0 20.425 7.825 Q 20.35 7.35 20.05 7.35 A 0.246 0.246 0 0 0 19.898 7.562 Q 19.6 8.488 19.6 13.45 L 19.6 19.6 L 20.65 19.65 A 80.278 80.278 0 0 1 20.881 19.673 Q 21.2 19.706 21.35 19.725 A 0.557 0.557 0 0 1 21.456 19.748 Q 21.516 19.768 21.559 19.801 A 0.264 0.264 0 0 1 21.625 19.875 Q 21.695 19.992 21.7 20.218 A 1.587 1.587 0 0 1 21.7 20.25 Q 21.7 20.569 21.557 20.681 A 0.27 0.27 0 0 1 21.475 20.725 A 0.741 0.741 0 0 1 21.356 20.75 Q 21.049 20.796 20.189 20.8 A 35.645 35.645 0 0 1 20.05 20.8 L 18.4 20.8 L 18.35 13.7 A 1713.984 1713.984 0 0 1 18.351 12.01 Q 18.356 6.481 18.4 6.35 Q 18.482 6.145 19.203 6.108 A 6.832 6.832 0 0 1 19.55 6.1 Z M 51.528 8.755 A 3.244 3.244 0 0 0 50.6 8.95 A 5.065 5.065 0 0 0 49.354 9.517 A 5.41 5.41 0 0 0 47.875 10.925 Q 46.8 12.4 46.8 14.05 A 7.948 7.948 0 0 0 46.806 14.357 Q 46.824 14.821 46.9 15.05 A 7.045 7.045 0 0 0 46.991 15.373 A 5.816 5.816 0 0 0 48.575 17.95 Q 49.8 19.1 51.4 19.2 Q 52.198 19.269 52.514 19.098 A 0.378 0.378 0 0 0 52.7 18.9 A 0.397 0.397 0 0 0 52.718 18.859 Q 52.75 18.771 52.75 18.65 A 0.565 0.565 0 0 0 52.577 18.236 Q 52.372 18.031 51.925 17.924 A 3.737 3.737 0 0 0 51.5 17.85 A 3.634 3.634 0 0 1 49.464 16.814 A 5.626 5.626 0 0 1 48.65 15.8 Q 48.15 15 48.15 14.05 Q 48.15 12.7 49.15 11.55 Q 50.15 10.4 51.65 10.15 Q 52.7 10 52.7 9.45 Q 52.7 9.34 52.619 9.176 A 1.75 1.75 0 0 0 52.55 9.05 A 0.724 0.724 0 0 0 52.283 8.853 Q 52.051 8.75 51.7 8.75 A 3.029 3.029 0 0 0 51.528 8.755 Z M 20.5 5.15 L 20 5.15 Q 19.435 5.15 19.069 4.923 A 1.207 1.207 0 0 1 18.85 4.75 A 1.856 1.856 0 0 1 18.307 3.532 A 2.484 2.484 0 0 1 18.3 3.35 A 1.917 1.917 0 0 1 18.462 2.555 A 1.862 1.862 0 0 1 18.85 2 A 1.635 1.635 0 0 1 20.028 1.5 A 1.948 1.948 0 0 1 20.05 1.5 A 1.634 1.634 0 0 1 21.234 1.984 A 2.007 2.007 0 0 1 21.25 2 A 1.995 1.995 0 0 1 21.616 2.491 A 1.626 1.626 0 0 1 21.8 3.25 A 1.225 1.225 0 0 1 21.79 3.416 Q 21.749 3.71 21.55 3.75 Q 21.328 3.839 21.501 4.007 A 0.687 0.687 0 0 0 21.55 4.05 A 0.529 0.529 0 0 1 21.694 4.187 Q 21.8 4.341 21.767 4.565 A 0.893 0.893 0 0 1 21.75 4.65 Q 21.703 5.072 20.644 5.142 A 5.897 5.897 0 0 1 20.5 5.15 Z M 20.45 3.15 A 0.785 0.785 0 0 0 20.389 2.995 Q 20.281 2.794 20.075 2.775 A 0.396 0.396 0 0 0 20.039 2.773 Q 19.793 2.773 19.7 3.1 A 1.239 1.239 0 0 0 19.659 3.228 Q 19.488 3.9 20.45 3.9 A 2.123 2.123 0 0 0 20.564 3.864 Q 20.8 3.782 20.8 3.7 Q 20.703 3.651 20.464 3.177 A 8.957 8.957 0 0 1 20.45 3.15 Z" vector-effect="non-scaling-stroke"/></g></svg>